<?xml version="1.0" encoding="UTF-8"?>
<svg version="1.1" xmlns="http://www.w3.org/2000/svg" width="1024" height="1024">
<path d="M0 0 C337.92 0 675.84 0 1024 0 C1024 337.92 1024 675.84 1024 1024 C686.08 1024 348.16 1024 0 1024 C0 686.08 0 348.16 0 0 Z " fill="#004794" transform="translate(0,0)"/>
<path d="M0 0 C1.16276962 0.00564972 1.16276962 0.00564972 2.34902954 0.01141357 C35.23306837 0.19880634 65.76955386 7.57482824 94.8125 23.25 C95.42464355 23.57613281 96.03678711 23.90226562 96.66748047 24.23828125 C105.29123637 28.86218028 113.14471259 34.17046485 120.8125 40.25 C121.68003906 40.91257812 122.54757812 41.57515625 123.44140625 42.2578125 C136.91122499 52.81686564 148.85138097 65.34673927 158.8125 79.25 C159.24788086 79.8569873 159.68326172 80.46397461 160.13183594 81.08935547 C161.46048029 82.96419858 162.76644344 84.85250381 164.0625 86.75 C164.43874512 87.29406494 164.81499023 87.83812988 165.20263672 88.39868164 C169.42710444 94.76104159 172.32460756 101.27421513 175.8125 108.25 C176.1425 73.6 176.4725 38.95 176.8125 3.25 C213.83307599 3.1290909 213.83307599 3.1290909 229.46289062 3.10351562 C240.21334169 3.08578219 250.96372173 3.06504695 261.71411133 3.02368164 C269.54696329 2.99355707 277.37975708 2.97437296 285.21266538 2.96773452 C289.35104512 2.96386082 293.4892586 2.95491186 297.62758446 2.93280983 C318.8043797 2.82413004 339.92765136 2.74652773 360.3125 9.3125 C361.25480469 9.60922607 362.19710937 9.90595215 363.16796875 10.21166992 C379.276822 15.49839554 394.20772042 23.15018058 407.8125 33.25 C408.73675781 33.93191406 409.66101563 34.61382812 410.61328125 35.31640625 C434.91919207 54.29302107 451.80063304 78.82579639 460.8125 108.25 C461.01214355 108.89710938 461.21178711 109.54421875 461.41748047 110.2109375 C465.93552804 125.15671511 467.20389057 139.97479922 467.125 155.5 C467.12284485 156.26724396 467.1206897 157.03448792 467.11846924 157.82498169 C467.06588578 169.51355429 466.66675665 180.85861811 463.8125 192.25 C463.61382324 193.04825195 463.41514648 193.84650391 463.21044922 194.66894531 C457.18188059 218.03360005 446.82267554 239.10513439 430.8125 257.25 C429.98621094 258.19746094 429.15992188 259.14492188 428.30859375 260.12109375 C402.94483257 288.66016549 365.48673585 306.9022 327.33682632 309.41292953 C321.41885195 309.64665913 315.50309007 309.59733844 309.58203125 309.54296875 C307.93339343 309.53853871 306.28475132 309.53549005 304.6361084 309.53381348 C298.63233979 309.51830708 292.62866245 309.47642592 286.625 309.4375 C273.156875 309.375625 259.68875 309.31375 245.8125 309.25 C245.8125 342.25 245.8125 375.25 245.8125 409.25 C223.0425 409.25 200.2725 409.25 176.8125 409.25 C176.4825 373.28 176.1525 337.31 175.8125 300.25 C171.8525 308.17 171.8525 308.17 167.8125 316.25 C166.18473385 319.10332264 164.58104468 321.87159066 162.8125 324.625 C162.39299072 325.28580566 161.97348145 325.94661133 161.54125977 326.62744141 C156.10911681 335.05638008 149.70687995 342.50194281 142.94921875 349.890625 C141.10078021 351.93167962 139.32915115 354.01374282 137.5625 356.125 C123.47240042 372.14085351 105.70342575 384.55188071 86.8125 394.25 C86.214375 394.56130859 85.61625 394.87261719 85 395.19335938 C51.37064642 412.48740195 11.06578042 418.48604303 -26.1875 412.25 C-26.95304199 412.12641113 -27.71858398 412.00282227 -28.50732422 411.87548828 C-66.12587538 405.62970347 -100.59170329 388.54112437 -128.1875 362.25 C-129.04263184 361.43571533 -129.04263184 361.43571533 -129.91503906 360.60498047 C-138.51405797 352.36220023 -146.31685016 343.99445896 -153.1875 334.25 C-153.58743164 333.69441406 -153.98736328 333.13882812 -154.39941406 332.56640625 C-178.28736995 299.2027054 -193.15984863 256.33394212 -193.390625 215.140625 C-193.39759399 214.29969803 -193.40456299 213.45877106 -193.41174316 212.59236145 C-193.42903596 209.89485611 -193.43546241 207.19755845 -193.4375 204.5 C-193.43850708 203.5795993 -193.43951416 202.65919861 -193.44055176 201.71090698 C-193.43062146 188.31682925 -192.94446509 175.39608894 -190.1875 162.25 C-189.90512623 160.74890888 -189.62388498 159.24760429 -189.34375 157.74609375 C-182.23981238 121.4802762 -164.6494243 87.21320567 -138.71289062 60.81054688 C-137.168455 59.23051606 -135.65387025 57.62550149 -134.140625 56.015625 C-121.89993756 43.17394381 -107.73999155 32.74132627 -92.1875 24.25 C-91.57116699 23.91162109 -90.95483398 23.57324219 -90.31982422 23.22460938 C-62.55003523 8.18593514 -31.5886409 -0.23270185 0 0 Z " fill="#FDFCF9" transform="translate(382.1875,284.75)"/>
<path d="M0 0 C26.7487014 23.39080451 42.75856225 57.10029305 45.75073242 92.36279297 C46.82354084 108.83363514 46.68088544 125.29374157 42.94921875 141.41015625 C42.68238281 142.63863281 42.41554688 143.86710938 42.140625 145.1328125 C34.11520961 178.48287202 13.89246898 210.49388927 -15.47265625 228.95141602 C-18.61862048 230.85873808 -21.81574243 232.65877602 -25.05078125 234.41015625 C-25.6526123 234.7364502 -26.25444336 235.06274414 -26.87451172 235.39892578 C-37.137876 240.83870402 -47.7538309 243.87175144 -59.05078125 246.41015625 C-60.0975 246.65765625 -61.14421875 246.90515625 -62.22265625 247.16015625 C-91.15090111 253.04386707 -122.93641841 244.55200369 -147.65234375 229.25 C-179.90918494 207.62771351 -198.88399962 175.06373119 -207.05078125 137.41015625 C-214.42312358 98.91480056 -207.81322576 58.4146886 -185.92138672 25.72363281 C-166.69450477 -1.94370839 -139.76953909 -20.74788568 -107.05078125 -28.58984375 C-106.04917969 -28.83476562 -105.04757812 -29.0796875 -104.015625 -29.33203125 C-66.55247199 -36.69356603 -28.53136091 -24.38956589 0 0 Z " fill="#004694" transform="translate(466.05078125,382.58984375)"/>
<path d="M0 0 C103.83225806 0 103.83225806 0 130 26 C146.61542756 43.40129238 153.48345829 64.62561338 153.21484375 88.265625 C152.60478708 111.19769322 143.28230881 131.10106966 127 147 C91.98218351 178.90875801 45.31430106 170 0 170 C0 113.9 0 57.8 0 0 Z " fill="#004694" transform="translate(628,356)"/>
<path d="M0 0 C3.21043882 1.38188453 5.04936365 2.92421903 7.25 5.625 C8.03117188 6.57246094 8.03117188 6.57246094 8.828125 7.5390625 C9.40820312 8.26222656 9.40820312 8.26222656 10 9 C7 9 7 9 5.17578125 7.5390625 C4.56089844 6.90742187 3.94601563 6.27578125 3.3125 5.625 C2.68988281 4.99851562 2.06726563 4.37203125 1.42578125 3.7265625 C0 2 0 2 0 0 Z " fill="#204A97" transform="translate(245,639)"/>
</svg>
